<svg viewBox="0 0 23 23" fill="none" xmlns="http://www.w3.org/2000/svg">
<path d="M15 15C11.134 15 8 11.866 8 8C8 4.13401 11.134 1 15 1C18.866 1 22 4.13401 22 8C22 9.29396 21.6489 10.5059 21.0368 11.5458C20.8896 11.7958 20.8523 12.0991 20.9591 12.3689L21.462 13.64C21.7053 14.2551 21.2043 14.9075 20.5472 14.831L17.8471 14.517C17.7014 14.5001 17.5541 14.5211 17.4164 14.5717C16.6632 14.8488 15.8493 15 15 15Z" fill="#DADADA"/>
<path d="M15 15C15 18.866 11.866 22 8 22C7.15071 22 6.33675 21.8488 5.58358 21.5717C5.44588 21.5211 5.29862 21.5001 5.15288 21.517L2.45277 21.831C1.79566 21.9075 1.29468 21.2551 1.53805 20.64L2.04094 19.3689C2.14767 19.0991 2.11039 18.7958 1.96321 18.5458C1.35109 17.5059 1 16.294 1 15C1 11.134 4.13401 8 8 8M15 15C11.134 15 8 11.866 8 8M15 15C15.8493 15 16.6632 14.8488 17.4164 14.5717C17.5541 14.5211 17.7014 14.5001 17.8471 14.517L20.5472 14.831C21.2043 14.9075 21.7053 14.2552 21.462 13.64L20.9591 12.3689C20.8523 12.0991 20.8896 11.7958 21.0368 11.5458C21.6489 10.5059 22 9.29396 22 8C22 4.13401 18.866 1 15 1C11.134 1 8 4.13401 8 8" stroke="#424242" stroke-opacity="0.95" stroke-width="1.1" stroke-linejoin="round"/>
</svg>
