<svg viewBox="0 0 22 22" fill="none" xmlns="http://www.w3.org/2000/svg">
<rect width="18" height="18" transform="translate(2)"/>
<mask id="path-1-inside-1_586_304" fill="white">
<path fill-rule="evenodd" clip-rule="evenodd" d="M2.24957 12.9775L11 21.7279L18.955 13.773L18.955 13.773L19.7505 12.9775C21.9472 10.7808 21.9472 7.21921 19.7505 5.02251C17.5538 2.82581 13.9922 2.82581 11.7955 5.02251L11 5.81801L10.2045 5.02252C8.00782 2.82583 4.44627 2.82583 2.24957 5.02253C0.0528703 7.21922 0.052871 10.7808 2.24957 12.9775Z"/>
</mask>
<path fill-rule="evenodd" clip-rule="evenodd" d="M2.24957 12.9775L11 21.7279L18.955 13.773L18.955 13.773L19.7505 12.9775C21.9472 10.7808 21.9472 7.21921 19.7505 5.02251C17.5538 2.82581 13.9922 2.82581 11.7955 5.02251L11 5.81801L10.2045 5.02252C8.00782 2.82583 4.44627 2.82583 2.24957 5.02253C0.0528703 7.21922 0.052871 10.7808 2.24957 12.9775Z" fill="#DADADA"/>
<path d="M11 21.7279L10.1515 22.5764L11 23.425L11.8485 22.5764L11 21.7279ZM2.24957 12.9775L3.0981 12.1289L2.24957 12.9775ZM18.955 13.773L19.8035 14.6215L20.652 13.773L19.8035 12.9244L18.955 13.773ZM18.955 13.773L18.1064 12.9244L17.2579 13.773L18.1064 14.6215L18.955 13.773ZM11 5.81801L10.1515 6.66654L11 7.51506L11.8485 6.66654L11 5.81801ZM10.2045 5.02252L11.053 4.174L10.2045 5.02252ZM2.24957 5.02253L1.40104 4.174L2.24957 5.02253ZM11.8485 20.8794L3.0981 12.1289L1.40104 13.826L10.1515 22.5764L11.8485 20.8794ZM18.1064 12.9244L10.1515 20.8794L11.8485 22.5764L19.8035 14.6215L18.1064 12.9244ZM18.1064 14.6215L18.1064 14.6215L19.8035 12.9244L19.8035 12.9244L18.1064 14.6215ZM18.9019 12.1289L18.1064 12.9244L19.8035 14.6215L20.599 13.826L18.9019 12.1289ZM18.9019 5.87104C20.63 7.59911 20.63 10.4009 18.9019 12.1289L20.599 13.826C23.2643 11.1607 23.2643 6.83931 20.599 4.17398L18.9019 5.87104ZM12.644 5.87104C14.3721 4.14297 17.1739 4.14297 18.9019 5.87104L20.599 4.17398C17.9337 1.50865 13.6123 1.50865 10.947 4.17398L12.644 5.87104ZM11.8485 6.66654L12.644 5.87104L10.947 4.17398L10.1515 4.96948L11.8485 6.66654ZM9.35599 5.87105L10.1515 6.66654L11.8485 4.96948L11.053 4.174L9.35599 5.87105ZM3.0981 5.87105C4.82617 4.14298 7.62792 4.14298 9.35599 5.87105L11.053 4.174C8.38772 1.50867 4.06637 1.50867 1.40104 4.174L3.0981 5.87105ZM3.0981 12.1289C1.37003 10.4009 1.37003 7.59912 3.0981 5.87105L1.40104 4.174C-1.26429 6.83933 -1.26429 11.1607 1.40104 13.826L3.0981 12.1289Z" fill="#424242" fill-opacity="0.9" mask="url(#path-1-inside-1_586_304)"/>
</svg>
