<svg  viewBox="0 0 22 21" fill="none" xmlns="http://www.w3.org/2000/svg">
<path d="M2.66667 19.1667C2.66667 19.6269 3.03976 20 3.5 20H6.5C7.60457 20 8.5 19.1046 8.5 18V15.5C8.5 14.1193 9.61929 13 11 13C12.3807 13 13.5 14.1193 13.5 15.5V18C13.5 19.1046 14.3954 20 15.5 20H18.5C18.9602 20 19.3333 19.6269 19.3333 19.1667V8.33333L14 3C12.3431 1.34315 9.65685 1.34315 8 3L2.66667 8.33333V19.1667Z" fill="#D9D9D9"/>
<path d="M1 10L2.66667 8.33333M21 10L19.3333 8.33333M2.66667 8.33333V19.1667C2.66667 19.6269 3.03976 20 3.5 20H6.5C7.60457 20 8.5 19.1046 8.5 18V18V15.5C8.5 14.1193 9.61929 13 11 13V13V13C12.3807 13 13.5 14.1193 13.5 15.5V18V18C13.5 19.1046 14.3954 20 15.5 20H18.5C18.9602 20 19.3333 19.6269 19.3333 19.1667V8.33333M2.66667 8.33333L8 3V3C9.65685 1.34315 12.3431 1.34315 14 3V3L19.3333 8.33333" stroke="#424242" stroke-opacity="0.9" stroke-width="1.2" stroke-linecap="round" stroke-linejoin="round"/>
</svg>
