<svg viewBox="0 0 32 32" fill="none" xmlns="http://www.w3.org/2000/svg">
<path d="M14.4239 6.85652C14.8997 5.30208 17.1003 5.30208 17.5761 6.85652C18.0634 8.44818 19.8809 9.20101 21.3509 8.42008C22.7866 7.65742 24.3426 9.21344 23.5799 10.6491C22.799 12.1191 23.5518 13.9366 25.1435 14.4239C26.6979 14.8997 26.6979 17.1003 25.1435 17.5761C23.5518 18.0634 22.799 19.8809 23.5799 21.3509C24.3426 22.7866 22.7866 24.3426 21.3509 23.5799C19.8809 22.799 18.0634 23.5518 17.5761 25.1435C17.1003 26.6979 14.8997 26.6979 14.4239 25.1435C13.9366 23.5518 12.1191 22.799 10.6491 23.5799C9.21343 24.3426 7.65742 22.7866 8.42008 21.3509C9.20101 19.8809 8.44818 18.0634 6.85652 17.5761C5.30208 17.1003 5.30208 14.8997 6.85652 14.4239C8.44818 13.9366 9.20101 12.1191 8.42008 10.6491C7.65742 9.21343 9.21343 7.65742 10.6491 8.42008C12.1191 9.20101 13.9366 8.44818 14.4239 6.85652Z" fill="#DADADA" stroke="#424242"/>
<circle cx="16" cy="16" r="3.4" fill="white" stroke="#424242" stroke-width="0.8"/>
</svg>
