<svg width="301" height="300" viewBox="0 0 301 300" fill="none" xmlns="http://www.w3.org/2000/svg">
<path d="M123.129 359.222C87.874 361.563 52.8557 340.324 18.2213 317.37C-16.0629 294.068 -49.613 268.702 -68.8526 231.121C-88.776 193.552 -94.372 143.085 -75.0048 105.836C-54.9539 68.575 -9.60618 44.8689 35.9576 26.2841C81.1711 8.04723 126.267 -5.40404 166.04 3.10757C206.147 11.9549 240.947 42.0814 265.673 78.8806C290.733 116.015 306.069 159.475 298.609 198.902C290.815 237.993 259.892 272.715 227.034 302.689C193.843 332.327 158.367 357.565 123.129 359.222Z" fill="url(#paint0_linear_586_201)"/>
<defs>
<linearGradient id="paint0_linear_586_201" x1="152.759" y1="-80.0164" x2="150.276" y2="424.679" gradientUnits="userSpaceOnUse">
<stop stop-color="#BED4D4"/>
<stop offset="1" stop-color="#D3E2DC"/>
</linearGradient>
</defs>
</svg>
